/* XPM */
static char * fire_60_xpm[] = {
"64 64 445 2",
"  	c #FFFFFF",
". 	c #FFFCFC",
"+ 	c #FED9D6",
"@ 	c #FFFAFA",
"# 	c #FEF2F1",
"$ 	c #FD8F84",
"% 	c #FEE5E3",
"& 	c #FFF9F9",
"* 	c #FEF9F8",
"= 	c #FFFEFE",
"- 	c #FEE0DD",
"; 	c #FE674E",
"> 	c #FE8C7F",
", 	c #FFE9E8",
"' 	c #FFD6D4",
") 	c #FED4D1",
"! 	c #FEEBEA",
"~ 	c #FD5C3F",
"{ 	c #FE4500",
"] 	c #FECDC9",
"^ 	c #FDB6B0",
"/ 	c #FECFCB",
"( 	c #FFFDFC",
"_ 	c #FD887A",
": 	c #FD8B7E",
"< 	c #FE4912",
"[ 	c #FD4912",
"} 	c #FEF9F9",
"| 	c #FEE9E7",
"1 	c #FE4100",
"2 	c #FEDEDC",
"3 	c #FFEDEC",
"4 	c #FE7360",
"5 	c #FFF6F6",
"6 	c #FEE6E4",
"7 	c #FE4B12",
"8 	c #FE4A12",
"9 	c #FE8C80",
"0 	c #FE9589",
"a 	c #FE644C",
"b 	c #FFF8F7",
"c 	c #FFE5E4",
"d 	c #FE5838",
"e 	c #FEE1DF",
"f 	c #FED9D7",
"g 	c #FE5014",
"h 	c #FE5912",
"i 	c #FEB5AF",
"j 	c #FEF0EF",
"k 	c #FE4E21",
"l 	c #FEA59D",
"m 	c #FEEFEE",
"n 	c #FE5531",
"o 	c #FD8576",
"p 	c #FFFDFD",
"q 	c #FEF7F6",
"r 	c #FEDBD9",
"s 	c #FE6814",
"t 	c #FFD0CC",
"u 	c #FECBC8",
"v 	c #FE490F",
"w 	c #FEEAE9",
"x 	c #FD9C92",
"y 	c #FE480D",
"z 	c #FECECA",
"A 	c #FEE2E0",
"B 	c #FDD6D2",
"C 	c #FEDCD9",
"D 	c #FE5314",
"E 	c #FF7020",
"F 	c #FFDAD7",
"G 	c #FEC0BB",
"H 	c #FEA49C",
"I 	c #FEEFED",
"J 	c #FE5F44",
"K 	c #FE8070",
"L 	c #FFFBFB",
"M 	c #FE7B6B",
"N 	c #FFFCFB",
"O 	c #FDC0BA",
"P 	c #FE5613",
"Q 	c #FF7721",
"R 	c #FFDAD8",
"S 	c #FECFCC",
"T 	c #FFE2E0",
"U 	c #FED3CF",
"V 	c #FDD6D4",
"W 	c #FE9A90",
"X 	c #FD530B",
"Y 	c #FECCC8",
"Z 	c #FE522A",
"` 	c #FFEEEC",
" .	c #FFE5E2",
"..	c #FE6217",
"+.	c #FF7921",
"@.	c #FEDAD8",
"#.	c #FEECEA",
"$.	c #FFF2F2",
"%.	c #FD988D",
"&.	c #FEC4BE",
"*.	c #FE5400",
"=.	c #FEC0BA",
"-.	c #FEACA5",
";.	c #FE4702",
">.	c #FE5E42",
",.	c #FE5532",
"'.	c #FE4811",
").	c #FE6612",
"!.	c #FE7818",
"~.	c #FED2CD",
"{.	c #FFF5F4",
"].	c #FE6B56",
"^.	c #FEDEDB",
"/.	c #FEAFA8",
"(.	c #FE6200",
"_.	c #FEBEB8",
":.	c #FEC1BB",
"<.	c #FE5000",
"[.	c #FE5E12",
"}.	c #FE4812",
"|.	c #FE6B12",
"1.	c #FD8612",
"2.	c #FDB2A7",
"3.	c #FE8F83",
"4.	c #FD7865",
"5.	c #FEFFFF",
"6.	c #FE8172",
"7.	c #FE6C00",
"8.	c #FEC8C3",
"9.	c #FDD8D5",
"0.	c #FEEDEB",
"a.	c #FEF1F0",
"b.	c #FE4E24",
"c.	c #FE6712",
"d.	c #FE6112",
"e.	c #FEA412",
"f.	c #FD6D41",
"g.	c #FED1CD",
"h.	c #FE5821",
"i.	c #FDDCD9",
"j.	c #FD621B",
"k.	c #FF700F",
"l.	c #FECDCA",
"m.	c #FDACA5",
"n.	c #FE4E13",
"o.	c #FF7313",
"p.	c #FE7012",
"q.	c #FE5B13",
"r.	c #FEA112",
"s.	c #FE800E",
"t.	c #FE9B92",
"u.	c #FEEAE8",
"v.	c #FD603C",
"w.	c #FD6C11",
"x.	c #FFC5C1",
"y.	c #FDEDEB",
"z.	c #FD6848",
"A.	c #FD8A11",
"B.	c #FF6810",
"C.	c #FD7E6E",
"D.	c #FDDAD7",
"E.	c #FEDFDD",
"F.	c #FD6D57",
"G.	c #FE5111",
"H.	c #FE7412",
"I.	c #FE8813",
"J.	c #FE8A12",
"K.	c #FEAC12",
"L.	c #FD550B",
"M.	c #FE6E59",
"N.	c #FE5635",
"O.	c #FE6D11",
"P.	c #FF7212",
"Q.	c #FE6852",
"R.	c #FE7359",
"S.	c #FF7A12",
"T.	c #FE5900",
"U.	c #FDD9D6",
"V.	c #FEE7E5",
"W.	c #FD5712",
"X.	c #FD8312",
"Y.	c #FE9713",
"Z.	c #FEAC13",
"`.	c #FDA112",
" +	c #FE5F12",
".+	c #FE6812",
"++	c #FE9313",
"@+	c #FE7B12",
"#+	c #FE5812",
"$+	c #FE7712",
"%+	c #FEAA12",
"&+	c #FE9F13",
"*+	c #FD7961",
"=+	c #FDDDDA",
"-+	c #FFF7F6",
";+	c #FD715E",
">+	c #FE5B28",
",+	c #FD5E12",
"'+	c #FE8C13",
")+	c #FEB312",
"!+	c #FEBB12",
"~+	c #FDB912",
"{+	c #FE8412",
"]+	c #FE9B16",
"^+	c #FF7612",
"/+	c #FE9E12",
"(+	c #FFB612",
"_+	c #FE9312",
":+	c #FDF1F0",
"<+	c #FDB7B1",
"[+	c #FFF0EF",
"}+	c #FE958A",
"|+	c #FDCDCA",
"1+	c #FE6611",
"2+	c #FE9E1D",
"3+	c #FEB81B",
"4+	c #FED112",
"5+	c #FEC212",
"6+	c #FFB712",
"7+	c #FFB412",
"8+	c #FD8F16",
"9+	c #FFB512",
"0+	c #FEC311",
"a+	c #FE8913",
"b+	c #FE958B",
"c+	c #FFF1F0",
"d+	c #FDDAD6",
"e+	c #FDA59C",
"f+	c #FDB1AA",
"g+	c #FFE5E3",
"h+	c #FE6953",
"i+	c #FFF4F3",
"j+	c #FCBAB1",
"k+	c #FE7B23",
"l+	c #FD8027",
"m+	c #FEB519",
"n+	c #FDC512",
"o+	c #FEDD12",
"p+	c #FEC512",
"q+	c #FFB812",
"r+	c #FEBE16",
"s+	c #FED212",
"t+	c #FE8F12",
"u+	c #FD664D",
"v+	c #FFF5F5",
"w+	c #FE867A",
"x+	c #FFF3F2",
"y+	c #FE5C40",
"z+	c #FE4F1F",
"A+	c #FD8968",
"B+	c #FF7913",
"C+	c #FE9A12",
"D+	c #FDD612",
"E+	c #FED012",
"F+	c #FEDE12",
"G+	c #FFBA12",
"H+	c #FFC612",
"I+	c #FEDA17",
"J+	c #FEA012",
"K+	c #FE5500",
"L+	c #FED2CF",
"M+	c #FDB2AB",
"N+	c #FEAEA7",
"O+	c #FE8273",
"P+	c #FEE4E2",
"Q+	c #FE5624",
"R+	c #FEA599",
"S+	c #FECFCA",
"T+	c #FE8C00",
"U+	c #FF8F12",
"V+	c #FFD312",
"W+	c #FEDD13",
"X+	c #FFE615",
"Y+	c #FECE12",
"Z+	c #FFE012",
"`+	c #FEB316",
" @	c #FE670F",
".@	c #FE887B",
"+@	c #FFEEED",
"@@	c #FD5027",
"#@	c #FEBEB9",
"$@	c #FFD6D3",
"%@	c #FE5729",
"&@	c #FD6A33",
"*@	c #FEF6F5",
"=@	c #FEEEED",
"-@	c #FD9400",
";@	c #FFE50D",
">@	c #FEEB5F",
",@	c #FFE51A",
"'@	c #FED812",
")@	c #FFE410",
"!@	c #FFE112",
"~@	c #FE7F16",
"{@	c #FE664E",
"]@	c #FFF2F1",
"^@	c #FE8071",
"/@	c #FDCAC6",
"(@	c #FEF6F6",
"_@	c #FEC7C3",
":@	c #FE7B66",
"<@	c #FD7826",
"[@	c #FECCC7",
"}@	c #FEE3E1",
"|@	c #FE8600",
"1@	c #FECB12",
"2@	c #FED312",
"3@	c #FEE62A",
"4@	c #FEF182",
"5@	c #FFE622",
"6@	c #FFE62C",
"7@	c #FEE841",
"8@	c #FEDF12",
"9@	c #FE8C12",
"0@	c #FE5628",
"a@	c #FFEAE9",
"b@	c #FEA9A1",
"c@	c #FE9085",
"d@	c #FECEC9",
"e@	c #FE8476",
"f@	c #FF7211",
"g@	c #FE724C",
"h@	c #FEE5E2",
"i@	c #FD968B",
"j@	c #FE840A",
"k@	c #FEDC12",
"l@	c #FEDF14",
"m@	c #FEED6E",
"n@	c #FFF184",
"o@	c #FFE62B",
"p@	c #FEF07D",
"q@	c #FFE620",
"r@	c #FEC812",
"s@	c #FEBF12",
"t@	c #FE9112",
"u@	c #FE5308",
"v@	c #FFE7E5",
"w@	c #FEB9B2",
"x@	c #FD6446",
"y@	c #FEA59B",
"z@	c #FE6C0F",
"A@	c #FE7A12",
"B@	c #FE4400",
"C@	c #FE4808",
"D@	c #FE9912",
"E@	c #FFE21A",
"F@	c #FEE73C",
"G@	c #FFF080",
"H@	c #FFF287",
"I@	c #FFE737",
"J@	c #FEF38D",
"K@	c #FFDC04",
"L@	c #FFB912",
"M@	c #FE8E12",
"N@	c #FE4E08",
"O@	c #FEB1A9",
"P@	c #FE9381",
"Q@	c #FD560B",
"R@	c #FE9812",
"S@	c #FD8B12",
"T@	c #FFE94B",
"U@	c #FFE950",
"V@	c #FFF183",
"W@	c #FFF38E",
"X@	c #FEEF7A",
"Y@	c #FED739",
"Z@	c #FFBE12",
"`@	c #FE7F12",
" #	c #FE5835",
".#	c #FFECEB",
"+#	c #FD8F7E",
"@#	c #FDDFDC",
"##	c #FE562F",
"$#	c #FE7112",
"%#	c #FEB112",
"&#	c #FFB312",
"*#	c #FFD30D",
"=#	c #FEEE72",
"-#	c #FEF07C",
";#	c #FFF38B",
">#	c #FFF38D",
",#	c #FFE448",
"'#	c #FFDC12",
")#	c #FEB212",
"!#	c #FE681B",
"~#	c #FD7760",
"{#	c #FDD9D5",
"]#	c #FDA69E",
"^#	c #FFFFFE",
"/#	c #FEFCFC",
"(#	c #FDE6E4",
"_#	c #FD5113",
":#	c #FE8B12",
"<#	c #FFD50D",
"[#	c #FEED6F",
"}#	c #FFE738",
"|#	c #FEC912",
"1#	c #FE891B",
"2#	c #FD581E",
"3#	c #FDB2AA",
"4#	c #FFF4F4",
"5#	c #FFE6E4",
"6#	c #FE5737",
"7#	c #FD5916",
"8#	c #FE9C13",
"9#	c #FFE431",
"0#	c #FFF07B",
"a#	c #FFF288",
"b#	c #FFF28B",
"c#	c #FFF286",
"d#	c #FEE95B",
"e#	c #FECD10",
"f#	c #FDA11B",
"g#	c #FD5E21",
"h#	c #FDEEED",
"i#	c #FED4D0",
"j#	c #FD5518",
"k#	c #FFBD12",
"l#	c #FED61A",
"m#	c #FEE32F",
"n#	c #FFE533",
"o#	c #FEDA2A",
"p#	c #FFBF15",
"q#	c #FD9E1B",
"r#	c #FD6128",
"s#	c #FD8372",
"t#	c #FEF3F2",
"u#	c #FFE9E7",
"v#	c #FE9C93",
"w#	c #FE4906",
"x#	c #FE6A04",
"y#	c #FE9012",
"z#	c #FEA212",
"A#	c #FEA512",
"B#	c #FE960F",
"C#	c #FD7609",
"D#	c #FD6A4C",
"E#	c #FDC4BE",
"F#	c #FFFAF9",
"G#	c #FEC1BC",
"H#	c #FE9E95",
"I#	c #FE9187",
"J#	c #FEAAA2",
"K#	c #FFFBFC",
"L#	c #FFFEFD",
"                                                                                                                                ",
"                                                                                                                                ",
"                                                                                                                                ",
"                                                                                                                                ",
"                                                                                                                                ",
"                                                                                                                                ",
"                                                                                                                                ",
"                                                                                                                                ",
"                                                                                                                                ",
"                                                                                                                                ",
"                                                                                                                                ",
"                                                                                                                                ",
"                                                                                                                                ",
"                                                                                                                                ",
"                                                                                                                                ",
"                                                                                                                                ",
"                                                          . + @                                                                 ",
"                                                        # $ %   & *     =                                                       ",
"                                                      - ; > .   , '     )                                                       ",
"                                                    ! ~ { ]     ^ /   ( _                                                       ",
"                                                    : < [ }   | 1 2   3 4 5                                                     ",
"                                                  6 7 8 9   ( 0 a b   c d e                                                     ",
"                                                  f g h i   j k l =   m n o p                                                   ",
"                                              q = r g s t   u v w       x y z                                                   ",
"                                            A B   C D E F   G H         I J K p                                                 ",
"                                          L M N   O P Q R   S T       U V W X %                                                 ",
"                                          Y Z `  .a ..+.@.  #.$.    2 %.p &.*.=.                                                ",
"                                          -.;.>.,.'.).!.~.    =   {.].^.  /.(._.  =                                             ",
"                                          :.<.[.< }.|.1.2.      . 3.4.5.L 6.7.8.9.0.                                            ",
"                                          a.b.c.[.8 d.e.f.b     g.h.i   i.j.k.; l.                                              ",
"                                            m.n.o.p.q.r.s.t.b u.v.w.x.y.z.A.B.C.L                                               ",
"                                    . D.E.= {.F.G.H.I.J.K.L.M.N.O.P.Q.R.S.e.T.U.                                                ",
"                                      = V.%.C , J W.X.Y.Z.`. +.+++@+#+$+%+&+*+p                                                 ",
"                                      m =+-+;+#.^.>+,+'+)+!+~+{+)+]+^+/+(+_+W b -+                                              ",
"                                      :+<+[+G }+= |+1+|.2+3+4+5+6+7+8+9+0+a+b+c+d+                                              ",
"                                      N e+f+g+h+i+  j+k+l+m+n+o+p+q+)+r+s+t+u+v+w+x+                                            ",
"                                        w y+j z+-   & A+B+C+D+E+F+G+(+H+I+J+K+L+M+N+                                            ",
"                                        N O+P+Q+R+    S+T+U+V+W+X+Y+(+Y+Z+`+ @.@+@@@}                                           ",
"                                          #@$@%@&@*@  =@-@%+V+;@>@,@'@)@!@q+~@{@]@^@/@(@                                        ",
"                                          #._@:@<@[@  }@|@1@2@3@4@5@6@7@8@(+9@0@a@b@c@3                                         ",
"                                          p d@e@f@g@h@i@j@k@l@m@n@o@p@q@r@s@t@u@v@w@x@]@                                        ",
"                                          = + y@z@A@B@C@D@E@F@G@H@I@J@K@L@r@M@N@v@O@P@.                                         ",
"                                            6 _@Q@R@S@A@!+T@U@V@W@X@W@Y@Z@p+`@ #.#+#@#                                          ",
"                                            | | ##$#%#&#*#=#-#;#>#>#>#,#'#)#!#~#{#]#^#                                          ",
"                                            /#(#O+_#:#9+<#[#>#>#>#>#>#}#|#1#2#3#]#4#                                            ",
"                                              p 5#6#7#8#5+9#0#a#b#c#d#e#f#g#o | h#                                              ",
"                                                  i#n j#++k#l#m#n#o#p#q#r#s#t#x+                                                ",
"                                                    u#v#w#x#y#z#A#B#C#D#E#F#                                                    ",
"                                                        ` G#H#I#}+J#i#K#                                                        ",
"                                                              p L#                                                              ",
"                                                                                                                                ",
"                                                                                                                                ",
"                                                                                                                                ",
"                                                                                                                                ",
"                                                                                                                                ",
"                                                                                                                                ",
"                                                                                                                                ",
"                                                                                                                                ",
"                                                                                                                                ",
"                                                                                                                                ",
"                                                                                                                                ",
"                                                                                                                                ",
"                                                                                                                                ",
"                                                                                                                                "};
