/* XPM */
static char * fire_40_xpm[] = {
"64 64 234 2",
"  	c #FFFFFF",
". 	c #FFFEFE",
"+ 	c #FEE5E3",
"@ 	c #FFF4F3",
"# 	c #FFFCFC",
"$ 	c #FEBAB4",
"% 	c #FEB2AB",
"& 	c #FEE8E6",
"* 	c #FFF9F9",
"= 	c #FFFCFB",
"- 	c #FFF9F8",
"; 	c #FEBBB6",
"> 	c #FE512A",
", 	c #FEE7E5",
"' 	c #FFFDFD",
") 	c #FEACA4",
"! 	c #FFF7F6",
"~ 	c #FEEAE8",
"{ 	c #FFE0DE",
"] 	c #FFEFEE",
"^ 	c #FE5632",
"/ 	c #FE7360",
"( 	c #FED5D2",
"_ 	c #FE887B",
": 	c #FED4D1",
"< 	c #FEBFBA",
"[ 	c #FFDCDA",
"} 	c #FE5611",
"| 	c #FEA59B",
"1 	c #FE8A7D",
"2 	c #FEC8C4",
"3 	c #FEDDDB",
"4 	c #FE6E59",
"5 	c #FFF6F5",
"6 	c #FEF5F5",
"7 	c #FEF2F1",
"8 	c #FFDEDC",
"9 	c #FE5E0E",
"0 	c #FEC0B9",
"a 	c #FFF5F4",
"b 	c #FE8679",
"c 	c #FFFAFA",
"d 	c #FE8577",
"e 	c #FEA79F",
"f 	c #FEC9C5",
"g 	c #FE670D",
"h 	c #FFC7C1",
"i 	c #FECFCB",
"j 	c #FED6D3",
"k 	c #FEC5C0",
"l 	c #FD775E",
"m 	c #FFE8E7",
"n 	c #FE6953",
"o 	c #FEC2BD",
"p 	c #FE6850",
"q 	c #FE7012",
"r 	c #FEC5BC",
"s 	c #FFF3F2",
"t 	c #FED5D1",
"u 	c #FECAC6",
"v 	c #FFE4E2",
"w 	c #FE6F46",
"x 	c #FFEDEB",
"y 	c #FE5D32",
"z 	c #FE500D",
"A 	c #FE4A12",
"B 	c #FE7812",
"C 	c #FEAC9B",
"D 	c #FEEEED",
"E 	c #FD7C6B",
"F 	c #FEF8F7",
"G 	c #FE7540",
"H 	c #FEDFDD",
"I 	c #FEF0EF",
"J 	c #FFFDFC",
"K 	c #FE8474",
"L 	c #FE6712",
"M 	c #FE5912",
"N 	c #FE7E12",
"O 	c #FE8440",
"P 	c #FFEEED",
"Q 	c #FEA094",
"R 	c #FE9A8D",
"S 	c #FEF4F3",
"T 	c #FD8668",
"U 	c #FE6B18",
"V 	c #FEB1AA",
"W 	c #FEEBE9",
"X 	c #FEE0DE",
"Y 	c #FE5A30",
"Z 	c #FE7212",
"` 	c #FE8112",
" .	c #FEA012",
"..	c #FE7A65",
"+.	c #FE9286",
"@.	c #FE6D17",
"#.	c #FE785E",
"$.	c #FE917E",
"%.	c #FE910E",
"&.	c #FE7342",
"*.	c #FEF7F6",
"=.	c #FED3CF",
"-.	c #FEC6C2",
";.	c #FD5B23",
">.	c #FD8913",
",.	c #FEA913",
"'.	c #FE9C12",
").	c #FE9A13",
"!.	c #FE6912",
"~.	c #FE8A12",
"{.	c #FEA912",
"].	c #FE9E8E",
"^.	c #FEEDEC",
"/.	c #FEDAD7",
"(.	c #FEB4AD",
"_.	c #FEE2E0",
":.	c #FEB9B2",
"<.	c #FE6913",
"[.	c #FE9E17",
"}.	c #FEC015",
"|.	c #FEBC12",
"1.	c #FFB512",
"2.	c #FE9315",
"3.	c #FFB212",
"4.	c #FEA712",
"5.	c #FEDEDB",
"6.	c #FD988E",
"7.	c #FDA895",
"8.	c #FE8022",
"9.	c #FEB915",
"0.	c #FED412",
"a.	c #FEC912",
"b.	c #FFB412",
"c.	c #FEC515",
"d.	c #FFB112",
"e.	c #FE8572",
"f.	c #FECDCA",
"g.	c #FE826C",
"h.	c #FFECEA",
"i.	c #FE883F",
"j.	c #FFAD12",
"k.	c #FED712",
"l.	c #FEDE13",
"m.	c #FFB912",
"n.	c #FED112",
"o.	c #FEBF15",
"p.	c #FE6C2F",
"q.	c #FED6D4",
"r.	c #FE988E",
"s.	c #FFE9E8",
"t.	c #FE5E13",
"u.	c #FEE6E3",
"v.	c #FDA062",
"w.	c #FEB812",
"x.	c #FFE218",
"y.	c #FEEA55",
"z.	c #FFDC10",
"A.	c #FFE318",
"B.	c #FFC712",
"C.	c #FE9D94",
"D.	c #FDD6D3",
"E.	c #FE7145",
"F.	c #FEA392",
"G.	c #FEEBEA",
"H.	c #FE8C49",
"I.	c #FEE648",
"J.	c #FFEE73",
"K.	c #FFE94C",
"L.	c #FEE534",
"M.	c #FFC012",
"N.	c #FE8C12",
"O.	c #FEA59C",
"P.	c #FEB7B1",
"Q.	c #FEABA3",
"R.	c #FEDBD7",
"S.	c #FE7F65",
"T.	c #FE7A19",
"U.	c #FE6040",
"V.	c #FE9013",
"W.	c #FFE42B",
"X.	c #FEED70",
"Y.	c #FFEF79",
"Z.	c #FEF07B",
"`.	c #FFD723",
" +	c #FEC312",
".+	c #FE8B12",
"++	c #FEA39A",
"@+	c #FEB5AD",
"#+	c #FED5D0",
"$+	c #FE9C92",
"%+	c #FE8512",
"&+	c #FEBF16",
"*+	c #FFEC6A",
"=+	c #FFF07D",
"-+	c #FFF38C",
";+	c #FFF38B",
">+	c #FFD73F",
",+	c #FE7513",
"'+	c #FEB8B2",
")+	c #FDA79E",
"!+	c #FFFBFB",
"~+	c #FEF9F8",
"{+	c #FDCAC6",
"]+	c #FD5A1F",
"^+	c #FEA212",
"/+	c #FFCE19",
"(+	c #FFF07C",
"_+	c #FFF38D",
":+	c #FEE239",
"<+	c #FEA917",
"[+	c #FD6A42",
"}+	c #FDC1BB",
"|+	c #FFE9E7",
"1+	c #FEA198",
"2+	c #FE630E",
"3+	c #FEAC13",
"4+	c #FEDD3B",
"5+	c #FEED6E",
"6+	c #FFEE75",
"7+	c #FEE155",
"8+	c #FEB619",
"9+	c #FD6F2E",
"0+	c #FDBFBA",
"a+	c #FEECEB",
"b+	c #FEBEB9",
"c+	c #FE6D49",
"d+	c #FE8D1D",
"e+	c #FEAC10",
"f+	c #FFAF10",
"g+	c #FE9525",
"h+	c #FD876A",
"i+	c #FED7D4",
"j+	c #FEDBD8",
"k+	c #FFCDC8",
"                                                                                                                                ",
"                                                                                                                                ",
"                                                                                                                                ",
"                                                                                                                                ",
"                                                                                                                                ",
"                                                                                                                                ",
"                                                                                                                                ",
"                                                                                                                                ",
"                                                                                                                                ",
"                                                                                                                                ",
"                                                                                                                                ",
"                                                                                                                                ",
"                                                                                                                                ",
"                                                                                                                                ",
"                                                                                                                                ",
"                                                                                                                                ",
"                                                                                                                                ",
"                                                                                                                                ",
"                                                                                                                                ",
"                                                                                                                                ",
"                                                                                                                                ",
"                                                          . + @ .                                                               ",
"                                                        # $ %   & * = -                                                         ",
"                                                      . ; > , ' ) ! ~ {                                                         ",
"                                                      ] ^ / . ( _ ' : <                                                         ",
"                                                      [ } | ' 1 2   3 4 5                                                       ",
"                                                  6 7 8 9 0 a b -   c d $                                                       ",
"                                                ' e ' f g h 5 i   . j k l -                                                     ",
"                                                m n o p q r ' s   t u v w x                                                     ",
"                                                m y z A B C     D E F 2 G H I                                                   ",
"                                                J K L M N O P ' Q R S T U V .                                                   ",
"                                            . W a X Y Z `  ...+.@.#.$.%.&.D                                                     ",
"                                              *.=.-.-.;.>.,.'.q ).!.~.{.].'                                                     ",
"                                              ^./.(._.:.<.[.}.|.1.2.3.4.) 5..                                                   ",
"                                              5 6./.V J 7.8.9.0.a.b.c.d.e.f._.                                                  ",
"                                                < j g.c h.i.j.k.l.m.n.o.p.q.r.                                                  ",
"                                                s.u t.u.# v.w.x.y.z.A.B.N < C.D.                                                ",
"                                                ' 2 E.F.G.H.0.I.J.K.L.M.N.O.P.Q.                                                ",
"                                                  R.S.T.U.V.W.X.Y.Z.`. +.+++@+#+                                                ",
"                                                  W $+%+ .&+*+=+-+;+>+a.,+'+)+!+                                                ",
"                                                  ~+{+]+^+/+(+_+_+;+:+<+[+}+|+                                                  ",
"                                                    = 1+2+3+4+5+6+7+8+9+0+a+                                                    ",
"                                                      c b+c+d+e+f+g+h+i+.                                                       ",
"                                                          ! j+f k+_.#                                                           ",
"                                                                                                                                ",
"                                                                                                                                ",
"                                                                                                                                ",
"                                                                                                                                ",
"                                                                                                                                ",
"                                                                                                                                ",
"                                                                                                                                ",
"                                                                                                                                ",
"                                                                                                                                ",
"                                                                                                                                ",
"                                                                                                                                ",
"                                                                                                                                ",
"                                                                                                                                ",
"                                                                                                                                ",
"                                                                                                                                ",
"                                                                                                                                ",
"                                                                                                                                ",
"                                                                                                                                ",
"                                                                                                                                ",
"                                                                                                                                "};
