/* XPM */
static char * gold_bag_xpm[] = {
"64 64 52 1",
" 	c #EEEEEE",
".	c #401D11",
"+	c #7A4329",
"@	c #FDDE76",
"#	c #5C2B17",
"$	c #FCCE4C",
"%	c #FEE788",
"&	c #FFFFFF",
"*	c #4D2515",
"=	c #FCD662",
"-	c #673722",
";	c #894E30",
">	c #FFF29B",
",	c #B37850",
"'	c #ECE7E4",
")	c #733719",
"!	c #9B5A35",
"~	c #F9C23C",
"{	c #FBFBFB",
"]	c #C8865B",
"^	c #A96840",
"/	c #E5B342",
"(	c #FFF7B2",
"_	c #E2DBD8",
":	c #DFAA80",
"<	c #FFFCCF",
"[	c #F9F5F0",
"}	c #30120A",
"|	c #90470C",
"1	c #F0F3FA",
"2	c #FEE855",
"3	c #DD996A",
"4	c #C99A73",
"5	c #D6CBC6",
"6	c #A75C0F",
"7	c #E1A023",
"8	c #ECC457",
"9	c #BA6E14",
"0	c #FEF06F",
"a	c #E9BA93",
"b	c #EFCDA7",
"c	c #CE821C",
"d	c #150A0A",
"e	c #F4E0C4",
"f	c #8F7A73",
"g	c #906850",
"h	c #AF896F",
"i	c #CE9939",
"j	c #C5B3AB",
"k	c #AE9B96",
"l	c #EBCC7F",
"m	c #6C5952",
"&&&&&&&&&&&&&&&&&&&&&&&&&&&&&&&&&&&&&&&&&&&&&&&&&&&&&&&&&&&&&&&&",
"&&&&&&&&&&&&&&&&&&&&&&&&&&&&&&&&&&&&&&&&&&&&&&&&&&&&&&&&&&&&&&&&",
"&&&&&&&&&&&&&&&&&&&&&&&&&&&&&&&&&&&&&&&&&&&&&&&&&&&&&&&&&&&&&&&&",
"&&&&&&&&&&&&&&&&&&&&&&&&&&&&(%'&&&&&&&&&&&&&&&&&&&&&&&&&&&&&&&&&",
"&&&&&&&&&&&&&&&&&&&&&&&&&&(@=@:&&&&&&&&&&&&&&&&&&&&&&&&&&&&&&&&&",
"&&&&&&&&&&&&&&&&&&&&&&&&&%==(>&&&&&&&&&&&&&&&&&&&&&&&&&&&&&&&&&&",
"&&&&&&&&&&&&&&&&&&&&&&&&@$ii'&&&&&&&&&&&&&&&&&&&&&&&&&&&&&&&&&&&",
"&&&&&&&&&&&&&&&&&&&&&&&&::j&&&&&&&&&&&&&&&&&&&&&&&&&&&&&&&&&&&&&",
"&&&&&&&&&&&&&&&&&&&&&&&&&&&&&&&&&&&&&&&&&&&&&&&&&&&&&&&&&&&&&&&&",
"&&&&&&&&&&&&&&&&&&&&&&&&&&&&&&&& jjjjjj &&&&&&&&&&&&&&&&&&&&&&&&",
"&&&&&&&&&&&&&&&&&&&&&&&&& jh;**..********m&&&&&&&&&&&&&&&&&&&&&&",
"&&&&&&&&&&&&&&&&&&&&&&&jm-gg+;+;!^^^g-;;!,&&&&&&&&&&&&&&&&&&&&&&",
"&&&&&&&&&&&&&&&&&&&&&&k#;+#-;!,4,!!^]4g!^ &&&&&&&&&&&&&&&&&&&&&&",
"&&&&&&&&&&&&&&&&&&&&&jja!+!+g-4b:,^^,:4*;j&&&&&&&&&&&&&&&&&&&&&&",
"&&&&&&&&&&&&&&&&&&&&f*4b4g}}g-:a4]^!]:ag}}- &&&&&&&&&&&&&&&&&&&&",
"&&&&&&&&&&&&&&&&&&j.mh!gb^^4:;4:44!!3aaa-}dk&&&&&&&&&&&&&&&&&&&&",
"&&&&&&&&&&&&&&&&&&  ':^#f4!]:,h444|,:aee,!g&&&&&&&&&&&&&&&&&&&&&",
"&&&&&&&&&&&&&&&&&&&&&b36#f^c:h,,4h+4:be4^]&&&&&&&&&&&&&&&&&&&&&&",
"&&&&&&&&&&&&&&&&&&&&&&&:^),63hg,,g+4:ea4a&&>@@==&&&&&&&&&&&&&&&&",
"&&&&&&&&&&&&&&&&&&&&&&&&a^+!^h;^!!;,:b4'&%=$=>%a&&&&&&&&&&&&&&&&",
"&&&&&&&&&&&&&&&&& @>&&&&&j;));-!+;+!:]j&&/i98&&&&&&&&&&&&&&&&&&&",
"&&&&&&&&&&&&&&&&&a/$=%&&&&k#*##+))#+h,b&&&&&&&&&&&&&&&&&&&&&&&&&",
"&&&&&&&&&&&&&&&&&&j98==>&&&f.mfgm--*+, &&&&&&&&&&&&&&&&&&&&&&&&&",
"&&&&&&&&&&&&&&&&&&&&b&%=&&&hgfkgmmgffh &&&&&&&&&&&&&&&&&&&&&&&&&",
"&&&&&&&&&&&&&&&&&&&&&&'b&&&g+mhgm+gmgffjj&&&&&&&&&&&&&&&&&&&&&&&",
"&&&&&&&&&&&&&&&&&&&&&&&&&&&m.-mm#.-+gmkfm;k&&&&&&&&&&&&&&&&&&&&&",
"&&&&&&&&&&&&&&&&&&&&&&&&&&&+-]!.*-*}mgh#-mk &&&&&&&&&&&&&&&&&&&&",
"&&&&&&&&&&&&&&&&&'(&&&&&&k;-!3,-+^;#-;j&&&&&&&&&&&&&&&&&&&&&&&&&",
"&&&&&&&&&&&&&&&&&3$=@%&j^^)-!3,+-!^++g43a&&&&&&&&&&&&&&&&&&&&&&&",
"&&&&&&&&&&&&&&&&&&]i=@=@];#-;,]^)+,,+;:%%@@@%&&&&&&&&&&&&&&&&&&&",
"&&&&&&&&&&&&l'&&&&& b(%8^+#-+!]];);]]i=$$@>@8&&&&&&b&&&&&&&&&&&&",
"&&&&&&&&&&&'=@&&&&&& ^!+-#*--+!,!;+^44796l''&&&&&kc$b&&&&&&&&&&&",
"&&&&&&&&&&&&=>&&&&&&h+#***#h:l@%l/;;,4g*#^aa&&&&%8$@&&&&&&&&&&&&",
"&&&&&&&&&&&&%=8&&&&&!+*...,==$=@@/!;!,,;-!:bb&'>%=%&&&&&&&&&&&&&",
"&&&&&&&&&&&&'=ij&&&&hhgm..)/99le:^!;;^,,;;4b:&8=@(&&&&&&&&&&&&&&",
"&&&&&&&&&&&&&%~:&&%@@@@@8*.*##-+-+;;;!^,,!]a3&'(&&&&&&&&&&&&&&&&",
"&&&&&&&&&&&&&&=:& ///@(@/*.*,:@@i+;+;^]]]^]:3'&&&&&&&&&&&&&&&&&&",
"&&&&&&&&&&&&&&'&&&'j!4k,#.gl@=%@i),:l%@=]]]:3:%=a&&&&&&&&&&&&&&&",
"&&&&&&&&&&&&&&&&&&& ;#..*g@$/@eh-l@==%%/]]]33:@%'&&&&&&&&&&&&&&&",
"&&&&&&&&&&&&&(('&&&j+#***)/c|!-*+//i8bl,]333:l(&&'8'&&&&&&&&&&&&",
"&&&&&&&&&>@====8&&&h;#**..***###-69)#)8@:3:::4'&&b=%&&&&&&&&&&&&",
"&&&&&&&&'8/i@(%'&&&!+##**..*#-##))###)i$@laa:]'&&'=(&&&&&&&&&&&&",
"&&&&&&&&&'jj'&(>>>l;+#,+..**#-;h444,;+;c$@a4,i=@%&@=3&&&&&&&&&&&",
"&&&&&&&&&&&&& $$$=@,-;$@4-**-)=@===@@,-,(@@,+4(%8&(=c&&&&&&&&&&&",
"&&&&&&&&&&&&&ai99l(h+;i8=lg#-)iii8(>8!-#:>=/*#a''&&@/b&&&&&&&&&&",
"&&&&&&&&&&&&b$$$888;-#)9==@g-))))^kh;+###^i;#-,'@@=@8/=&&&&&&&&&",
"&&&&&&&&&&&(:76i>(3;+#*+b(==+)--###--+;;!gg;;!]j/ii@(%:&&&&&&&&&",
"&&&&&&&&&&%=$/i^i3^!++-#-48/+++++++;!^,hh4hh,,^4laj'&&&&&&&&&&&&",
"&&&&&&&&&&/i9~/i,l!+##--#-))+++;;!^^,,,^!!gg;;-,=l&&&&8@(&&&&&&&",
"&&&&&&&&>%%%@@8cl(]gm..***##---+;!!!!;++++---#g%@l&&&&@=>@4&&&&&",
"&&&&&&&&///=%@==@@@@@8+*....+4:ll:4;/@:+##*.gl@==/&&&&&>=$/]&&&&",
"&&&&&&&&:,!=(%3///=>%8@%%l,.i=$$===8i8=%,..h@==(>b&''''&'%=$a&&&",
"&&&&&&&&&& ==$8ii^4all==%=/ii76i>(=i;68=@4g88ii:4@@====='&'(&&&&",
"&&&l=@%>&& /cc@(%/l%@==8%%%lli/l@l:4hh8(@=4,]gfkh~//@(@i==%&&&&&",
"&&&:i/$==@'& jjjj@=$=(l/$$=@=8:=@@=@@@4:l8a   b>l8]]34^l(@/&&&&&",
"&&& h^8<%8'&&&&&j/i6i4h,!i>>8@@i/i8>>83hkkj   8$$=@@=:ka'b&&&&&&",
"&&& khfkk &&&&&& jjjj &  jjj]/i8b:/abb&&&   & :]6/(>3 &&&&&&&&&&",
"&&&&&&&&&&&&&&&&&&&&&'''''&& jk4abj &'@@@@@%b&&&&& &&&&&&&&&&&&&",
"&&&&&&&&&&&&&&&&&&& ======@&&&&&&&&&&:$//@%@8&&&&&&&&&&&&&&&&&&&",
"&&&&&&&&&&&&&&&&&&&j/ii@(%/&&&&&&&&&& jh,lba &&&&&&&&&&&&&&&&&&&",
"&&&&&&&&&&&&&&&&&&&&&jjb' &&&&&&&&&&&&&&&&&&&&&&&&&&&&&&&&&&&&&&",
"&&&&&&&&&&&&&&&&&&&&&&&&&&&&&&&&&&&&&&&&&&&&&&&&&&&&&&&&&&&&&&&&",
"&&&&&&&&&&&&&&&&&&&&&&&&&&&&&&&&&&&&&&&&&&&&&&&&&&&&&&&&&&&&&&&&",
"&&&&&&&&&&&&&&&&&&&&&&&&&&&&&&&&&&&&&&&&&&&&&&&&&&&&&&&&&&&&&&&&"};
