/* XPM */
static char * fire_80_xpm[] = {
"64 64 714 2",
"  	c #FFFFFF",
". 	c #FFFEFE",
"+ 	c #FFFAFA",
"@ 	c #FEEAE8",
"# 	c #FEF1F0",
"$ 	c #FEF0EF",
"% 	c #FDBBB5",
"& 	c #FDC1BC",
"* 	c #FFFEFD",
"= 	c #FFFCFB",
"- 	c #FEE0DD",
"; 	c #FD8F83",
"> 	c #FD877A",
", 	c #FFF3F2",
"' 	c #FEE7E6",
") 	c #FEECEA",
"! 	c #FEFBFB",
"~ 	c #FED5D1",
"{ 	c #FD6B55",
"] 	c #FE4500",
"^ 	c #FECBC7",
"/ 	c #FFFDFD",
"( 	c #FEC8C4",
"_ 	c #FFD4D1",
": 	c #FECBC8",
"< 	c #FDDCDA",
"[ 	c #FD664F",
"} 	c #FE480C",
"| 	c #FE7968",
"1 	c #FEEAE9",
"2 	c #FEF6F6",
"3 	c #FD9287",
"4 	c #FECFCB",
"5 	c #FEFBFA",
"6 	c #FD8D81",
"7 	c #FEEFED",
"8 	c #FD887B",
"9 	c #FE4A15",
"0 	c #FEA79F",
"a 	c #FFF8F7",
"b 	c #FECAC6",
"c 	c #FE5C3F",
"d 	c #FED2CF",
"e 	c #FEE5E3",
"f 	c #FE7766",
"g 	c #FFF1F0",
"h 	c #FEC4BE",
"i 	c #FE5128",
"j 	c #FE4912",
"k 	c #FE512B",
"l 	c #FEC4C0",
"m 	c #FEEDEC",
"n 	c #FE8273",
"o 	c #FE4602",
"p 	c #FEE8E7",
"q 	c #FECECB",
"r 	c #FE6953",
"s 	c #FED5D2",
"t 	c #FFF4F4",
"u 	c #FE9B91",
"v 	c #FD4C00",
"w 	c #FE4A12",
"x 	c #FE6C57",
"y 	c #FEDCD9",
"z 	c #FFFCFC",
"A 	c #FDBDB7",
"B 	c #FD897D",
"C 	c #FFF8F8",
"D 	c #FE593A",
"E 	c #FDA49C",
"F 	c #FFFDFC",
"G 	c #FE8A7E",
"H 	c #FE5803",
"I 	c #FE5512",
"J 	c #FE7F6F",
"K 	c #FEEDEB",
"L 	c #FD6E5A",
"M 	c #FE470A",
"N 	c #FDD3D0",
"O 	c #FE5939",
"P 	c #FD705C",
"Q 	c #FEDDDB",
"R 	c #FE6212",
"S 	c #FE8C80",
"T 	c #FFFBFA",
"U 	c #FEDBD8",
"V 	c #FE4600",
"W 	c #FD8173",
"X 	c #FEEEED",
"Y 	c #FEF3F2",
"Z 	c #FE7562",
"` 	c #FDA69E",
" .	c #FFF7F7",
"..	c #FDEDEB",
"+.	c #FFF2F1",
"@.	c #FE9086",
"#.	c #FE5A01",
"$.	c #FE6C19",
"%.	c #FEC3BE",
"&.	c #FE5129",
"*.	c #FDC0BB",
"=.	c #FDC5C0",
"-.	c #FFDCD9",
";.	c #FCBFBA",
">.	c #FEF0EE",
",.	c #FE8D81",
"'.	c #FE5F03",
").	c #FF7125",
"!.	c #FEADA6",
"~.	c #FEBFBA",
"{.	c #FE7B6B",
"].	c #FEE8E6",
"^.	c #FD8678",
"/.	c #FE4300",
"(.	c #FD9C90",
"_.	c #FDA8A0",
":.	c #FEB7B1",
"<.	c #FFFFFE",
"[.	c #FD6F5C",
"}.	c #FE670B",
"|.	c #FE7626",
"1.	c #FEAFA8",
"2.	c #FECCC7",
"3.	c #FEACA4",
"4.	c #FED6D3",
"5.	c #FDC3BF",
"6.	c #FECCC9",
"7.	c #FD511A",
"8.	c #FD5B30",
"9.	c #FEE1DF",
"0.	c #FE5D41",
"a.	c #FEC7C3",
"b.	c #FEB9B3",
"c.	c #FD4700",
"d.	c #FF6E13",
"e.	c #FF7A26",
"f.	c #FEDBD9",
"g.	c #FED8D5",
"h.	c #FED3CF",
"i.	c #FD9C91",
"j.	c #FEF5F4",
"k.	c #FFE7E5",
"l.	c #FD7559",
"m.	c #FD5820",
"n.	c #FEC8C3",
"o.	c #FEB3AD",
"p.	c #FE4D1F",
"q.	c #FE968B",
"r.	c #FEB2AA",
"s.	c #FE5E42",
"t.	c #FE5010",
"u.	c #FE7216",
"v.	c #FF7924",
"w.	c #FEF7F5",
"x.	c #FEE7E5",
"y.	c #FEE3E1",
"z.	c #FD7A6A",
"A.	c #FED7D4",
"B.	c #FFEBEA",
"C.	c #FE856F",
"D.	c #FE5F13",
"E.	c #FEB6AF",
"F.	c #FE9E95",
"G.	c #FE4B17",
"H.	c #FE5127",
"I.	c #FE522B",
"J.	c #FE5412",
"K.	c #FF7212",
"L.	c #FE7819",
"M.	c #FE998A",
"N.	c #FD8A7D",
"O.	c #FD988E",
"P.	c #FEE4E2",
"Q.	c #FE6F4B",
"R.	c #FE6816",
"S.	c #FEB7B0",
"T.	c #FEABA4",
"U.	c #FE501A",
"V.	c #FD5D12",
"W.	c #FE4D12",
"X.	c #FE7912",
"Y.	c #FE7E12",
"Z.	c #FE8F77",
"`.	c #FDB0A9",
" +	c #FE5026",
".+	c #FECCC8",
"++	c #FE5900",
"@+	c #FF6B1A",
"#+	c #FEBCB6",
"$+	c #FFF9F8",
"%+	c #FEE9E7",
"&+	c #FEF4F3",
"*+	c #FED4D0",
"=+	c #FE4D1B",
"-+	c #FE6012",
";+	c #FE6412",
">+	c #FE4C12",
",+	c #FE4812",
"'+	c #FE7612",
")+	c #FE9812",
"!+	c #FE7A50",
"~+	c #FDD4D1",
"{+	c #FE5A39",
"]+	c #FE7460",
"^+	c #FEF6F5",
"/+	c #FD8D7F",
"(+	c #FE6800",
"_+	c #FE6C18",
":+	c #FEA59B",
"<+	c #FDB9B3",
"[+	c #FDD4D0",
"}+	c #FFFBFB",
"|+	c #FEF5F5",
"1+	c #FD7A68",
"2+	c #FE4E0A",
"3+	c #FE6D12",
"4+	c #FF6B12",
"5+	c #FD5412",
"6+	c #FF6E12",
"7+	c #FEA712",
"8+	c #FE7717",
"9+	c #FEAAA2",
"0+	c #FFEEED",
"a+	c #FE8A7D",
"b+	c #FD6019",
"c+	c #FFF0EF",
"d+	c #FEFFFF",
"e+	c #FCC4BF",
"f+	c #FE5C1F",
"g+	c #FE6612",
"h+	c #FE5D3D",
"i+	c #FDCECA",
"j+	c #FE4A19",
"k+	c #FD5611",
"l+	c #FF7413",
"m+	c #FF7412",
"n+	c #FE6912",
"o+	c #FEA212",
"p+	c #FE9710",
"q+	c #FE6034",
"r+	c #FEC9C6",
"s+	c #FFF3F3",
"t+	c #FEAEA8",
"u+	c #FD5C23",
"v+	c #FD6D11",
"w+	c #FE8B7E",
"x+	c #FEF2F1",
"y+	c #FDDAD7",
"z+	c #FD6A4D",
"A+	c #FD7A11",
"B+	c #FE8612",
"C+	c #FE5C12",
"D+	c #FD7461",
"E+	c #FFF6F5",
"F+	c #FEA299",
"G+	c #FE4B19",
"H+	c #FE5B12",
"I+	c #FF7512",
"J+	c #FF7D12",
"K+	c #FE7713",
"L+	c #FE9412",
"M+	c #FFAE12",
"N+	c #FD7511",
"O+	c #FD5026",
"P+	c #FE9185",
"Q+	c #FD8679",
"R+	c #FD4D0F",
"S+	c #FE7112",
"T+	c #FF7011",
"U+	c #FE654D",
"V+	c #FDA39B",
"W+	c #FD7157",
"X+	c #FE6F13",
"Y+	c #FE9712",
"Z+	c #FE9012",
"`+	c #FE5518",
" @	c #FEE7E4",
".@	c #FECFCC",
"+@	c #FFF6F6",
"@@	c #FFE9E8",
"#@	c #FE8475",
"$@	c #FE4B16",
"%@	c #FE5D12",
"&@	c #FE7F12",
"*@	c #FE9213",
"=@	c #FE8513",
"-@	c #FEAE13",
";@	c #FEA312",
">@	c #FD6411",
",@	c #FE4A03",
"'@	c #FD8D13",
")@	c #FF7712",
"!@	c #FE4E0D",
"~@	c #FE4D00",
"{@	c #FE6B0C",
"]@	c #FE9112",
"^@	c #FEAC12",
"/@	c #FE830E",
"(@	c #FE6B4F",
"_@	c #FDA59C",
":@	c #FDA198",
"<@	c #FEEEEE",
"[@	c #FEDFDC",
"}@	c #FD6C57",
"|@	c #FE4E13",
"1@	c #FD6412",
"2@	c #FD8913",
"3@	c #FDA513",
"4@	c #FDA113",
"5@	c #FEB412",
"6@	c #FDA213",
"7@	c #FE7413",
"8@	c #FE8212",
"9@	c #FEA814",
"0@	c #FE6312",
"a@	c #FE6C12",
"b@	c #FE8B12",
"c@	c #FFB012",
"d@	c #FFAD12",
"e@	c #FE7300",
"f@	c #FDD6D3",
"g@	c #FEF2F0",
"h@	c #FD8476",
"i@	c #FD6242",
"j@	c #FE5D10",
"k@	c #FD6313",
"l@	c #FE8F13",
"m@	c #FFB212",
"n@	c #FFB412",
"o@	c #FEC313",
"p@	c #FDB812",
"q@	c #FE8C12",
"r@	c #FE9A12",
"s@	c #FFB512",
"t@	c #FE9B16",
"u@	c #FF7612",
"v@	c #FE8112",
"w@	c #FEAB12",
"x@	c #FFB612",
"y@	c #FFAA12",
"z@	c #FE6400",
"A@	c #FEC0BB",
"B@	c #FEE4E1",
"C@	c #FEFDFD",
"D@	c #FDC4BF",
"E@	c #FFF9F9",
"F@	c #FED4D1",
"G@	c #FD6953",
"H@	c #FE6E45",
"I@	c #FD670B",
"J@	c #FE9714",
"K@	c #FFB618",
"L@	c #FEB914",
"M@	c #FED512",
"N@	c #FEC113",
"O@	c #FEB012",
"P@	c #FFB712",
"Q@	c #FFB213",
"R@	c #FE8816",
"S@	c #FE9B13",
"T@	c #FEBC12",
"U@	c #FFA712",
"V@	c #FDBFBA",
"W@	c #FEFDFC",
"X@	c #FEF9F8",
"Y@	c #FDCFCA",
"Z@	c #FD8475",
"`@	c #FFEFEE",
" #	c #FE7462",
".#	c #FDBEB8",
"+#	c #FE7538",
"@#	c #FE7214",
"##	c #FD7E21",
"$#	c #FDAB26",
"%#	c #FEBF17",
"&#	c #FEC512",
"*#	c #FEDC12",
"=#	c #FFC212",
"-#	c #FEC112",
";#	c #FEAB13",
">#	c #FEAD16",
",#	c #FEBB13",
"'#	c #FECC12",
")#	c #FE5C00",
"!#	c #FEA69E",
"~#	c #FDAEA8",
"{#	c #FE7C6C",
"]#	c #FDA79F",
"^#	c #FFF5F4",
"/#	c #FE9F97",
"(#	c #FEF7F6",
"_#	c #FDA396",
":#	c #FE7E2D",
"<#	c #FE7F26",
"[#	c #FE931D",
"}#	c #FEB713",
"|#	c #FDCB12",
"1#	c #FED112",
"2#	c #FED012",
"3#	c #FFB912",
"4#	c #FFB513",
"5#	c #FEC917",
"6#	c #FFD512",
"7#	c #FE6C0E",
"8#	c #FD6951",
"9#	c #FDAFA8",
"0#	c #FE6751",
"a#	c #FFB6B0",
"b#	c #FD4B00",
"c#	c #FD835D",
"d#	c #FF7A17",
"e#	c #FE8313",
"f#	c #FDD612",
"g#	c #FEC612",
"h#	c #FEDB12",
"i#	c #FEDF12",
"j#	c #FFBA12",
"k#	c #FED412",
"l#	c #FEDB17",
"m#	c #FFAE13",
"n#	c #FE531E",
"o#	c #FED3D0",
"p#	c #FEE2E0",
"q#	c #FE715D",
"r#	c #FED7D5",
"s#	c #FEC0BC",
"t#	c #FE5700",
"u#	c #FDBEB7",
"v#	c #FDB5AD",
"w#	c #FE8016",
"x#	c #FF8212",
"y#	c #FFA912",
"z#	c #FEDA13",
"A#	c #FEDB11",
"B#	c #FEE511",
"C#	c #FFC613",
"D#	c #FED912",
"E#	c #FEE213",
"F#	c #FEB516",
"G#	c #FE9113",
"H#	c #FE5815",
"I#	c #FE9288",
"J#	c #FFF4F3",
"K#	c #FE9C93",
"L#	c #FD8B7E",
"M#	c #FE9085",
"N#	c #FFCAC7",
"O#	c #FE8773",
"P#	c #FD8019",
"Q#	c #FE9C12",
"R#	c #FFAB12",
"S#	c #FFD312",
"T#	c #FFE411",
"U#	c #FFE534",
"V#	c #FEE633",
"W#	c #FFDC15",
"X#	c #FEC412",
"Y#	c #FECA12",
"Z#	c #FFE112",
"`#	c #FFE212",
" $	c #FEBD13",
".$	c #FE9C16",
"+$	c #FE6613",
"@$	c #FE684F",
"#$	c #FEE9E8",
"$$	c #FE5838",
"%$	c #FEF9F9",
"&$	c #FEB0A9",
"*$	c #FFCCC9",
"=$	c #FD7441",
"-$	c #FFEDEC",
";$	c #FD721A",
">$	c #FDB212",
",$	c #FFE50E",
"'$	c #FEE951",
")$	c #FEEB5E",
"!$	c #FFE51E",
"~$	c #FFE213",
"{$	c #FFE512",
"]$	c #FFBE12",
"^$	c #FEA413",
"/$	c #FD7817",
"($	c #FE5D3B",
"_$	c #FEDFDD",
":$	c #FE6F5B",
"<$	c #FEBDB7",
"[$	c #FCC3BD",
"}$	c #FD9D93",
"|$	c #FFD5D2",
"1$	c #FE6637",
"2$	c #FD7A2C",
"3$	c #FDA69C",
"4$	c #FE6A19",
"5$	c #FEBE12",
"6$	c #FFC012",
"7$	c #FED312",
"8$	c #FFE51A",
"9$	c #FEEC6A",
"0$	c #FFEE74",
"a$	c #FFE623",
"b$	c #FEE842",
"c$	c #FFE62B",
"d$	c #FEE112",
"e$	c #FEB812",
"f$	c #FEA812",
"g$	c #FF7F12",
"h$	c #FE5726",
"i$	c #FE7E6E",
"j$	c #FE988D",
"k$	c #FEA59D",
"l$	c #FD9A90",
"m$	c #FFD8D6",
"n$	c #FE6442",
"o$	c #FF7514",
"p$	c #FE7955",
"q$	c #FEFAFA",
"r$	c #FDB5AF",
"s$	c #FE6516",
"t$	c #FEC011",
"u$	c #FED612",
"v$	c #FFDA13",
"w$	c #FFE73E",
"x$	c #FEF182",
"y$	c #FFEF78",
"z$	c #FFE627",
"A$	c #FEE950",
"B$	c #FEEC67",
"C$	c #FFE625",
"D$	c #FED212",
"E$	c #FEAF12",
"F$	c #FE5610",
"G$	c #FEA098",
"H$	c #FE8677",
"I$	c #FE5D3C",
"J$	c #FEB2AB",
"K$	c #FDBCB5",
"L$	c #FFD8D5",
"M$	c #FE6A52",
"N$	c #FE7312",
"O$	c #FE6F10",
"P$	c #FE7D69",
"Q$	c #FD6348",
"R$	c #FE6C13",
"S$	c #FEC213",
"T$	c #FFE211",
"U$	c #FEE41F",
"V$	c #FEEB5D",
"W$	c #FFF38E",
"X$	c #FEEF79",
"Y$	c #FFE732",
"Z$	c #FEEF7A",
"`$	c #FFEC68",
" %	c #FFE10D",
".%	c #FEB612",
"+%	c #FE5611",
"@%	c #FEA097",
"#%	c #FD8A79",
"$%	c #FE6C4E",
"%%	c #FFD8D4",
"&%	c #FE7867",
"*%	c #FE6C11",
"=%	c #FE8712",
"-%	c #FE690D",
";%	c #FE4903",
">%	c #FE4D10",
",%	c #FD8512",
"'%	c #FFCD11",
")%	c #FEE630",
"!%	c #FEE845",
"~%	c #FEEE70",
"{%	c #FEF080",
"]%	c #FFE73B",
"^%	c #FEF38C",
"/%	c #FFED67",
"(%	c #FECE0E",
"_%	c #FEB312",
":%	c #FF8012",
"<%	c #FE4F12",
"[%	c #FE8673",
"}%	c #FE8F7C",
"|%	c #FEEBE9",
"1%	c #FD5B11",
"2%	c #FE8912",
"3%	c #FE9E12",
"4%	c #FD7512",
"5%	c #FE7512",
"6%	c #FFD811",
"7%	c #FFE950",
"8%	c #FEEF74",
"9%	c #FFF38D",
"0%	c #FEEE77",
"a%	c #FEEF70",
"b%	c #FFC424",
"c%	c #FFBB12",
"d%	c #FEA612",
"e%	c #FE542C",
"f%	c #FEB8B2",
"g%	c #FEE0DC",
"h%	c #FE7F67",
"i%	c #FCD3CF",
"j%	c #FEA39A",
"k%	c #FE4F1C",
"l%	c #FE7412",
"m%	c #FEA512",
"n%	c #FEAA12",
"o%	c #FEBC10",
"p%	c #FEE438",
"q%	c #FFF181",
"r%	c #FEEC66",
"s%	c #FEF181",
"t%	c #FFEF77",
"u%	c #FFD02F",
"v%	c #FED013",
"w%	c #FECE12",
"x%	c #FE6418",
"y%	c #FE6244",
"z%	c #FD9F97",
"A%	c #FDEAE9",
"B%	c #FE5D3E",
"C%	c #FD5714",
"D%	c #FD8712",
"E%	c #FFC70F",
"F%	c #FFE94C",
"G%	c #FFF185",
"H%	c #FFF289",
"I%	c #FFE531",
"J%	c #FEDE12",
"K%	c #FD5D27",
"L%	c #FD7B65",
"M%	c #FDDDDA",
"N%	c #FD9D94",
"O%	c #FDF1F1",
"P%	c #FDEEED",
"Q%	c #FD8477",
"R%	c #FE4C16",
"S%	c #FD6315",
"T%	c #FE9912",
"U%	c #FFC310",
"V%	c #FEE73A",
"W%	c #FFF080",
"X%	c #FEED6B",
"Y%	c #FEE21F",
"Z%	c #FEC212",
"`%	c #FE9918",
" &	c #FD6927",
".&	c #FD592C",
"+&	c #FDCBC7",
"@&	c #FED0CC",
"#&	c #FEFCFC",
"$&	c #FE5F44",
"%&	c #FE4C11",
"&&	c #FE6C14",
"*&	c #FEA313",
"=&	c #FED911",
"-&	c #FEE952",
";&	c #FFF182",
">&	c #FFF38B",
",&	c #FEE237",
"'&	c #FEA818",
")&	c #FD7223",
"!&	c #FD5220",
"~&	c #FD9589",
"{&	c #FDCAC5",
"]&	c #FDC6C2",
"^&	c #FE6045",
"/&	c #FE4B07",
"(&	c #FD6A15",
"_&	c #FFD70F",
":&	c #FEE22E",
"<&	c #FEEA5A",
"[&	c #FEED6A",
"}&	c #FEED67",
"|&	c #FEE757",
"1&	c #FED92B",
"2&	c #FFC311",
"3&	c #FDA71A",
"4&	c #FC7825",
"5&	c #FD582A",
"6&	c #FECECA",
"7&	c #FE4908",
"8&	c #FE6114",
"9&	c #FE8B13",
"0&	c #FDAF12",
"a&	c #FFC90A",
"b&	c #FFCC07",
"c&	c #FFCB08",
"d&	c #FFC50B",
"e&	c #FEB610",
"f&	c #FD9619",
"g&	c #FD6A17",
"h&	c #FD582D",
"i&	c #FDADA4",
"j&	c #FEECEB",
"k&	c #FFECEA",
"l&	c #FE6145",
"m&	c #FD5726",
"n&	c #FE631B",
"o&	c #FD8013",
"p&	c #FE9612",
"q&	c #FE9B12",
"r&	c #FE8917",
"s&	c #FD6E24",
"t&	c #FD6231",
"u&	c #FD9385",
"v&	c #FDDAD6",
"w&	c #FFF1EF",
"x&	c #FECAC5",
"y&	c #FE9F96",
"z&	c #FE7864",
"A&	c #FE7762",
"B&	c #FE7C69",
"C&	c #FD8F81",
"D&	c #FFE3E1",
"E&	c #FFF2F2",
"                                                                                                                                ",
"                                                                                                                                ",
"                                                                                                                                ",
"                                                                                                                                ",
"                                                                                                                                ",
"                                                                                                                                ",
"                                                                                                                                ",
"                                                                                                                                ",
"                                                                                                                                ",
"                                                            .                                                                   ",
"                                                        + @ #                                                                   ",
"                                                      $ % & *   = .                                                             ",
"                                                  . - ; > ,     ' )       !                                                     ",
"                                                . ~ { ] ^ /     ( _       :                                                     ",
"                                                < [ } | 1     2 3 4     5 6 .                                                   ",
"                                              7 8 9 ] 0 a   * b c d     e f g                                                   ",
"                                            / h i j k l     m n o p     q r s                                                   ",
"                                            t u v w x y   z A ] B C     ( D E F                                                 ",
"                                            g G H I J K   t L M ( /     N O P Q                                                 ",
"                                            g G H R S T   U V W X       Y Z o `  .                                              ",
"                                      # ... +.@.#.$.u     %.&.*./         =.V D -..                                             ",
"                                    $ ;.>.  g ,.'.).!.    ~.{.].        * # ^./.(.+                                             ",
"                                  + _.:.<.  @ [.}.|.1.    2.3.        z 4.5.6.7.8.@                                             ",
"                                  9.0.a.  z b.c.d.e.1.    f.g.      / h.i.j.k.l.m.n.                                            ",
"                                  o.p.q.4.r.s.t.u.v.3.    w.x.    . y.z.A.. B.C.D.E.                                            ",
"                                  F.G.H.s.I.j J.K.L.M.      /     t N.O.,   P.Q.R.S.  . .                                       ",
"                                  T.U.V.W.j j I X.Y.Z.,         = `. +=.. / .+++@+#+$+%+&+                                      ",
"                                  *+=+-+;+>+,+J.'+)+!+g.        ~+{+]+9.  ^+/+(+_+:+<+[+}+                                      ",
"                                  |+1+2+3+4+5+W.6+7+8+9+a     0+a+b+^.c+d+e+f+'+g+h+o.=                                         ",
"                                  * i+j+k+l+m+-+n+o+p+q+r+ .s+t+u+v+w+x+y+z+A+B+C+D+#                                           ",
"                          T $ $ a   E+F+G+H+I+J+K+L+M+N+O+P+Q+R+S+T+U+V+W+X+Y+Z+`+;.                                            ",
"                          z  @U l .@+@@@#@$@%@&@*@=@-@;@>@] ,@g+'@)@!@~@{@]@^@/@(@$                                             ",
"                            / ^+B._@:@<@[@}@|@1@2@3@4@5@6@7@6+8@9@Y.0@a@b@c@d@e@_@}+                                            ",
"                            C f@g@, h@1.C g.i@j@k@l@m@n@o@p@q@r@s@t@u@v@w@x@y@z@A@$+B@                                          ",
"                            C@N D@E@F@G@9./ 6.H@I@a@J@K@L@M@N@O@P@Q@R@S@s@T@U@++A@t V@W@                                        ",
"                            X@Y@Z@9.`@ #% }+T .#+#@###$#%#&#*#=#-#P@;#>#,#'#U@)#!#t ~#[@                                        ",
"                              P.{#]#^#/#n +@  (#_#:#<#[#}#|#1#M@2#3#x@4#5#6#y@7#8#+.( u ^#                                      ",
"                              . 9#0#>.a#b#x.    1 c#d#e#d@f#g#h#i#j#x@s@k#l#m#&@n#4 e }@o#.                                     ",
"                                p#q#r#s#t#u#      v#w#x#y#k#z#A#B#C#x@x@D#E#F#G#H#I#J#K#L#E@                                    ",
"                                z M#%.N#)#O#}+    - P#Q#R#S#T#U#V#W#X#Y#Z#`# $.$+$@$#$%.$$e %$                                  ",
"                                  & &$*$++=$-     -$;$>$n@S#,$'$)$!$Z#~${$`#]$^$/$($b _$:$<$[$                                  ",
"                                  e }$|$1$2$3$*   p#4$5$6$7$8$9$0$a$8$b$c$d$e$f$g$h$&$+.i$j$k$                                  ",
"                                  C l$m$n$o$p$~ q$r$s$t$u$v$w$x$y$z$A$B$C$D$P@E$x#F$G$E@H$I$J$                                  ",
"                                  }+K$L$M$N$O$P$_.Q$R$S$T$U$V$W$X$Y$Z$`$ %]$5$.%x#+%@%+ #%$%A.                                  ",
"                                  / ~ %%&%*%=%-%;%>%,%'%)%!%~%W${%]%^%/%(%3#Y#_%:%<%F+, [%}%%$                                  ",
"                                  . |%y a+1%2%3%4%5%7+6%B$7%8%W$9%0%W$a%b%c%7$d%'+e%f%g%h%i%                                    ",
"                                    E+y.j%k%l%m%5@n%o%p%q%r%s%9%9%9%9%t%u%v%w%Y+x%y%4 E.z%}+                                    ",
"                                    %$A%( B%C%D%c@P@E%F%G%H%9%9%9%9%9%y$I%J%5@P#K%L%M%N%x.                                      ",
"                                      O%P%Q%R%S%T%n@U%V%W%9%9%9%9%9%9%X%Y%Z%`% &.&#++&@&/                                       ",
"                                      * #&-.$&%&&&*&c%=&-&;&H%>&>&H%X$,&&#'&)&!&~&|%{&#&                                        ",
"                                          / ]&^&/&(&3%]$_&:&<&[&}&|&1&2&3&4&5&; 1 P.+                                           ",
"                                            T 6& #7&8&9&0&U%a&b&c&d&e&f&g&h&i&j&. z                                             ",
"                                              F k&`.l&m&n&o&p&Q#q&r&s&t&u&v&a                                                   ",
"                                                  F w&x&y&J z&A&B&C&:.D&+ .                                                     ",
"                                                            t E&+                                                               ",
"                                                                                                                                ",
"                                                                                                                                ",
"                                                                                                                                ",
"                                                                                                                                ",
"                                                                                                                                ",
"                                                                                                                                ",
"                                                                                                                                ",
"                                                                                                                                ",
"                                                                                                                                "};
